<?xml version="1.0" encoding="UTF-8" standalone="no"?>
<svg
   xmlns:dc="http://purl.org/dc/elements/1.1/"
   xmlns:cc="http://creativecommons.org/ns#"
   xmlns:rdf="http://www.w3.org/1999/02/22-rdf-syntax-ns#"
   xmlns:svg="http://www.w3.org/2000/svg"
   xmlns="http://www.w3.org/2000/svg"
   xmlns:sodipodi="http://sodipodi.sourceforge.net/DTD/sodipodi-0.dtd"
   xmlns:inkscape="http://www.inkscape.org/namespaces/inkscape"
   viewBox="0 0 321 311.00002"
   version="1.1"
   sodipodi:docname="aaa.svg"
   width="321"
   height="311">
  <defs
     id="defs109">
    <style
       id="style96">.cls-1{fill:#b09a54;}.cls-2{fill:#263e7a;}.cls-3{fill:url(#linear-gradient);}.cls-4{fill:#cb2227;}</style>
    <linearGradient
       id="linear-gradient"
       x1="471.29999"
       y1="252.22"
       x2="471.29999"
       y2="76.220001"
       gradientUnits="userSpaceOnUse"
       gradientTransform="matrix(0.56856888,0,0,0.5683249,0,-9.5927799e-4)">
      <stop
         offset="0"
         stop-color="#e84c28"
         id="stop98" />
      <stop
         offset="0.19"
         stop-color="#e8552c"
         id="stop100" />
      <stop
         offset="0.49"
         stop-color="#e66f36"
         id="stop102" />
      <stop
         offset="0.88"
         stop-color="#e59847"
         id="stop104" />
      <stop
         offset="0.99"
         stop-color="#e4a54c"
         id="stop106" />
    </linearGradient>
  </defs>
  <path
     class="cls-1"
     d="m 205.54902,87.151665 -6.39071,-1.659509 a 45.172798,45.153414 0 0 0 -0.93245,-4.728463 l 5.26494,-3.978275 a 4.9181209,4.9160104 0 0 0 -3.64452,-8.791986 l -6.53286,0.915003 a 45.485511,45.465992 0 0 0 -2.67796,-3.978274 l 3.34319,-5.683249 a 4.9181209,4.9160104 0 0 0 -6.73186,-6.728967 l -5.68569,3.34175 a 45.098884,45.079531 0 0 0 -4.00841,-2.67681 l 0.90971,-6.535736 a 4.9181209,4.9160104 0 0 0 -8.79576,-3.642963 l -3.97998,5.262689 a 44.348373,44.329342 0 0 0 -4.73049,-0.937736 l -1.66591,-6.410705 a 4.9238065,4.9216937 0 0 0 -9.52353,0 l -1.66022,6.387972 a 44.348373,44.329342 0 0 0 -4.73049,0.937736 l -3.97999,-5.262689 a 4.9181209,4.9160104 0 0 0 -8.79007,3.62023 l 0.90971,6.535736 a 44.200545,44.181578 0 0 0 -3.97998,2.67681 L 121.85,52.472479 a 4.9181209,4.9160104 0 0 0 -6.73186,6.728967 l 3.34887,5.683249 a 46.429335,46.409412 0 0 0 -2.68364,3.978274 l -6.53854,-0.915003 a 4.9181209,4.9160104 0 0 0 -3.64453,8.791986 l 5.26495,3.978275 a 45.172798,45.153414 0 0 0 -0.93246,4.728463 l -6.39071,1.659509 a 4.9181209,4.9160104 0 0 0 0,9.513759 l 6.3566,1.699291 a 45.570796,45.551241 0 0 0 0.93245,4.734151 l -5.26495,3.97827 a 4.9181209,4.9160104 0 0 0 3.64453,8.79199 l 6.53854,-0.91501 a 44.740686,44.721487 0 0 0 2.68365,4.00669 l -3.34887,5.68325 a 4.9181209,4.9160104 0 0 0 6.73185,6.72897 l 5.68569,-3.34743 a 44.200545,44.181578 0 0 0 3.97998,2.67681 l -0.90971,6.53573 a 4.9181209,4.9160104 0 0 0 8.79577,3.64297 l 3.97998,-5.26269 a 44.348373,44.329342 0 0 0 4.73049,0.93773 l 1.66022,6.38797 a 4.9238065,4.9216937 0 0 0 9.52353,0 l 1.66022,-6.38797 a 44.348373,44.329342 0 0 0 4.73049,-0.93773 l 3.97999,5.26269 a 4.9181209,4.9160104 0 0 0 8.79576,-3.64297 l -0.90971,-6.53573 a 45.098884,45.079531 0 0 0 4.00841,-2.67681 l 5.68569,3.34743 a 4.9181209,4.9160104 0 0 0 6.73185,-6.72897 l -3.34318,-5.68325 a 44.683829,44.664654 0 0 0 2.67796,-4.00669 l 6.53854,0.91501 a 4.9181209,4.9160104 0 0 0 3.64453,-8.79199 l -5.26495,-3.97827 a 45.570796,45.551241 0 0 0 0.93245,-4.734151 l 6.39071,-1.659509 a 4.9181209,4.9160104 0 0 0 0,-9.513759 z m -0.80168,6.416388 -7.45394,1.909572 a 1.6147356,1.6140427 0 0 0 -1.19399,1.363979 40.93696,40.919393 0 0 1 -1.26222,6.393656 1.6033643,1.6026762 0 0 0 0.56856,1.70497 l 6.12349,4.62617 a 1.7057067,1.7049747 0 0 1 -1.26791,3.05759 l -7.60745,-1.05709 a 1.6090499,1.6083595 0 0 0 -1.62042,0.80134 41.954698,41.936695 0 0 1 -3.62178,5.41045 1.6090499,1.6083595 0 0 0 -0.12509,1.80728 l 3.8947,6.62098 a 1.7057067,1.7049747 0 0 1 -0.26723,2.08007 1.7057067,1.7049747 0 0 1 -2.07528,0.26143 l -6.62951,-3.88734 a 1.5976786,1.596993 0 0 0 -1.80236,0.11935 41.670414,41.652532 0 0 1 -5.41846,3.62591 1.5919929,1.5913097 0 0 0 -0.80169,1.61404 l 1.06323,7.60419 a 1.7057067,1.7049747 0 0 1 -3.06459,1.26736 l -4.62246,-6.12086 a 1.6090499,1.6083595 0 0 0 -1.70571,-0.56832 42.21624,42.198124 0 0 1 -6.39071,1.26168 1.5919929,1.5913097 0 0 0 -1.36457,1.1878 l -1.91608,7.42801 a 1.7057067,1.7049747 0 0 1 -3.31475,0 l -1.93314,-7.38823 a 1.5976786,1.596993 0 0 0 -1.36456,-1.1878 42.21624,42.198124 0 0 1 -6.39072,-1.26168 1.6545355,1.6538255 0 0 0 -0.43211,-0.0625 1.6147356,1.6140427 0 0 0 -1.27928,0.63652 l -4.62815,6.12086 a 1.7057067,1.7049747 0 0 1 -3.06459,-1.26736 l 1.06323,-7.60419 a 1.5976786,1.596993 0 0 0 -0.80169,-1.61404 42.074097,42.056043 0 0 1 -5.41846,-3.62592 1.5976786,1.596993 0 0 0 -1.80236,-0.11935 l -6.62951,3.88735 a 1.7057067,1.7049747 0 0 1 -2.07528,-0.26143 1.7057067,1.7049747 0 0 1 -0.26723,-2.08007 l 3.8947,-6.62099 a 1.5976786,1.596993 0 0 0 -0.12509,-1.80159 43.023608,43.005145 0 0 1 -3.62178,-5.41613 1.6090499,1.6083595 0 0 0 -1.62042,-0.80134 l -7.60745,1.05708 a 1.7057067,1.7049747 0 0 1 -1.26791,-3.05759 l 6.12349,-4.62616 a 1.6033643,1.6026762 0 0 0 0.56856,-1.70497 41.5965,41.57865 0 0 1 -1.26222,-6.39366 1.6204213,1.619726 0 0 0 -1.18831,-1.363979 l -7.44256,-1.926622 a 1.7057067,1.7049747 0 0 1 0,-3.319017 l 7.44256,-1.926622 a 1.6204213,1.619726 0 0 0 1.18831,-1.36398 41.5965,41.57865 0 0 1 1.26222,-6.393655 1.6033643,1.6026762 0 0 0 -0.56856,-1.704974 l -6.12349,-4.626165 a 1.7057067,1.7049747 0 0 1 1.26791,-3.057588 l 7.60745,1.057084 a 1.6090499,1.6083595 0 0 0 1.62042,-0.801338 42.551695,42.533436 0 0 1 3.62178,-5.410453 1.6090499,1.6083595 0 0 0 0.12509,-1.807273 l -3.8947,-6.620985 a 1.7057067,1.7049747 0 0 1 0.26723,-2.080069 1.7057067,1.7049747 0 0 1 2.07528,-0.26143 l 6.62951,3.887342 a 1.5976786,1.596993 0 0 0 1.80236,-0.119348 42.074097,42.056043 0 0 1 5.41846,-3.625913 1.5919929,1.5913097 0 0 0 0.80169,-1.614042 l -1.06323,-7.604188 a 1.7057067,1.7049747 0 0 1 3.06459,-1.307147 l 4.62815,6.120859 a 1.5976786,1.596993 0 0 0 1.70571,0.568325 42.352696,42.334522 0 0 1 6.39071,-1.261681 1.5919929,1.5913097 0 0 0 1.36457,-1.187799 l 1.93313,-7.43369 a 1.7057067,1.7049747 0 0 1 3.31476,0 l 1.93313,7.43369 a 1.5919929,1.5913097 0 0 0 1.36457,1.187799 42.21624,42.198124 0 0 1 6.39071,1.261681 1.6090499,1.6083595 0 0 0 1.70571,-0.568325 l 4.63952,-6.120859 a 1.7057067,1.7049747 0 0 1 3.06459,1.267365 l -1.06323,7.604187 a 1.5919929,1.5913097 0 0 0 0.80168,1.614043 41.670414,41.652532 0 0 1 5.41847,3.625912 1.5976786,1.596993 0 0 0 1.80236,0.119349 l 6.62951,-3.887343 a 1.7057067,1.7049747 0 0 1 2.34251,2.341499 l -3.8947,6.638035 a 1.6090499,1.6083595 0 0 0 0.12508,1.807273 41.954698,41.936695 0 0 1 3.62179,5.410453 1.6090499,1.6083595 0 0 0 1.62042,0.801338 l 7.60745,-1.057084 a 1.7057067,1.7049747 0 0 1 1.26791,3.057588 l -6.12349,4.626165 a 1.6033643,1.6026762 0 0 0 -0.56857,1.704974 41.607871,41.590016 0 0 1 1.25654,6.382289 1.6033643,1.6026762 0 0 0 1.18831,1.36398 l 7.43688,1.926621 a 1.7057067,1.7049747 0 0 1 0,3.319018 z"
     id="path111"
     style="stroke-width:0.568447" />
  <ellipse
     class="cls-1"
     cx="154.93503"
     cy="90.203568"
     id="circle113"
     rx="23.02704"
     ry="23.017159"
     style="stroke-width:0.568447" />
  <path
     class="cls-2"
     d="m 295.65582,0.6923971 c 0,0 -116.44859,-1.56289348 -155.21931,0 C 125.08515,1.3118712 105.18524,3.5340216 84.716764,26.835343 64.248284,50.136664 0,153.00347 0,153.00347 h 35.251271 c 0.676597,0 2.024105,1.35261 2.501703,1.73908 a 14.327936,14.321788 0 0 1 3.979982,4.67163 c 1.552193,3.17125 0.454855,6.25157 -1.927448,8.6499 -2.041163,2.04029 -4.986349,3.20535 -7.391396,4.74551 -0.847168,0.56833 -1.705707,1.13665 -2.10939,2.09144 -0.540141,1.34693 0.216056,2.94961 1.404365,3.77936 1.876277,1.30715 4.247209,0.67062 6.134858,1.92662 a 6.9933973,6.9903963 0 0 1 2.677959,3.40995 c 1.591993,4.48408 -2.530131,6.21748 -5.856259,7.64397 a 3.4398418,3.4383657 0 0 0 -1.97862,4.342 c 0.898339,2.92688 3.621784,2.14827 5.924488,2.7848 2.615417,0.72745 4.014096,2.64271 4.014096,5.37635 0,1.97777 -0.07391,4.02942 -1.751192,5.34794 -3.172614,2.48926 -5.191034,5.20585 -5.498061,9.30916 a 26.000655,25.989498 0 0 0 3.013415,14.11151 c 4.491694,8.40552 14.055023,11.01413 22.998611,11.01413 h 34.114134 v 60.81077 L 197.84491,149.60489 c 0,0 -49.59057,2.01755 -65.95399,0 -29.21875,-3.5975 -48.243066,-33.27542 -47.191213,-61.947416 0.994995,-27.074999 27.939473,-56.190283 55.475263,-59.56045 0,0 89.12886,-0.113665 137.83816,-0.113665 z"
     id="path115"
     style="stroke-width:0.568447" />
  <path
     class="cls-3"
     d="m 259.83598,143.34195 c 0,0 -36.38841,-5.68325 -25.01703,-55.695843 0,0 1.70571,6.819899 7.39139,6.819899 5.68569,0 8.52854,-8.524873 8.52854,-8.524873 0,0 14.21422,-29.552895 11.93994,-42.624368 0,0 22.74276,15.913097 12.50852,51.149241 0,0 9.66567,-2.273299 13.07708,-12.503148 0,0 7.95997,5.114924 6.82283,22.164672 a 9.6997852,9.6956229 0 0 0 7.95997,-5.114925 c 0,0 5.11712,43.192695 -29.56559,43.192695 0,0 8.52854,-8.52488 8.52854,-27.2796 0,0 -3.41142,11.3665 -15.35136,11.3665 a 26.256511,26.245244 0 0 0 -7.95997,-28.416244 67.028586,66.999823 0 0 0 1.13714,45.465994 z"
     id="path117"
     style="fill:url(#linear-gradient);stroke-width:0.568447" />
  <path
     class="cls-2"
     d="m 317.14772,223.43598 c 5.22515,-2.92688 5.11712,-12.07122 -0.21605,-14.77645 4.70775,-4.83645 1.87628,-14.20812 -4.3723,-14.20812 h -6.10074 v 0.0398 h -23.87989 c 33.54556,-3.97828 32.97699,-25.0063 32.97699,-25.0063 H 230.2704 l -17.62564,27.84792 h -36.95697 l -34.11414,53.99087 h 170.32618 v -0.0398 c 5.68569,-0.64221 8.10211,-9.45693 3.64453,-14.13424 4.55992,-2.31309 5.53786,-9.82066 1.60336,-13.71368 z"
     id="path119"
     style="stroke-width:0.568447" />
  <polygon
     class="cls-1"
     points="422,262.22 527,262.22 497,502.22 446,502.22 "
     id="polygon121"
     transform="matrix(0.56856888,0,0,0.5683249,0,-9.5927799e-4)" />
  <path
     class="cls-2"
     d="m 317.14772,223.43598 c 5.22515,-2.92688 5.11712,-12.07122 -0.21605,-14.77645 4.70775,-4.83645 1.87628,-14.20812 -4.3723,-14.20812 h -6.10074 v 0.0398 l -93.81387,2.84162 h -36.95697 l -34.11414,53.99087 h 170.32618 v -0.0398 c 5.68569,-0.64221 8.10211,-9.45693 3.64453,-14.13424 4.55992,-2.31309 5.53786,-9.82066 1.60336,-13.71368 z"
     id="path123"
     style="stroke-width:0.568447" />
  <rect
     class="cls-1"
     x="253.58173"
     y="291.10641"
     width="28.997013"
     height="19.891371"
     id="rect125"
     style="stroke-width:0.568447" />
  <path
     class="cls-4"
     d="m 177.12626,271.19232 h -6.82282 l -1.30202,2.09143 h -3.49102 l 6.5556,-9.75813 h 3.35456 l 6.57265,9.75813 h -3.56492 z m -1.07459,-1.70498 -2.33113,-3.73389 -2.33114,3.73389 z"
     id="path127"
     style="stroke-width:0.568447" />
  <path
     class="cls-4"
     d="m 192.89268,273.28375 -2.84284,-2.72227 h -3.13282 v 2.72227 h -3.41141 v -9.75813 h 6.3964 a 11.809176,11.804108 0 0 1 3.41141,0.43192 4.9977205,4.9955759 0 0 1 2.21173,1.22758 2.5983598,2.5972448 0 0 1 0.77894,1.88116 2.5642457,2.5631453 0 0 1 -0.79031,1.87547 5.11712,5.1149241 0 0 1 -2.23447,1.20485 l 3.2977,3.13715 z m -0.85854,-7.47915 a 4.9010638,4.8989607 0 0 0 -2.33113,-0.4433 h -2.77462 v 3.40995 h 2.77462 a 4.8271498,4.8250784 0 0 0 2.33113,-0.44897 1.3873081,1.3867128 0 0 0 0,-2.512 z"
     id="path129"
     style="stroke-width:0.568447" />
  <path
     class="cls-4"
     d="m 198.95931,263.52562 h 3.41141 v 9.75813 h -3.41141 z"
     id="path131"
     style="stroke-width:0.568447" />
  <path
     class="cls-4"
     d="m 207.3059,273.13599 a 10.040927,10.036618 0 0 1 -2.60973,-0.81839 l 1.13714,-1.70497 a 9.9101557,9.9059031 0 0 0 2.24584,0.73882 12.286774,12.281501 0 0 0 2.60405,0.27848 6.0723157,6.06971 0 0 0 2.1435,-0.28416 c 0.46055,-0.19323 0.69366,-0.4433 0.69366,-0.76156 a 0.6652256,0.66494014 0 0 0 -0.41506,-0.56832 3.9117539,3.9100753 0 0 0 -1.04616,-0.36942 c -0.42643,-0.0909 -1.00637,-0.19323 -1.73414,-0.30689 -1.13714,-0.17618 -2.03547,-0.35236 -2.75187,-0.52854 a 5.0147776,5.0126256 0 0 1 -1.83648,-0.84681 1.8762773,1.8754722 0 0 1 -0.76757,-1.56289 2.1321333,2.1312184 0 0 1 0.69366,-1.54016 4.8498926,4.8478114 0 0 1 2.09233,-1.09687 12.46303,12.457682 0 0 1 3.41141,-0.40351 16.289499,16.282508 0 0 1 2.75188,0.22733 10.711838,10.707241 0 0 1 2.34819,0.63652 l -1.04617,1.70498 a 11.496463,11.49153 0 0 0 -4.07664,-0.76724 5.4412042,5.4388693 0 0 0 -2.10939,0.3069 c -0.45485,0.20459 -0.68228,0.47171 -0.68228,0.80702 0,0.33531 0.26154,0.56832 0.78462,0.75019 a 18.364775,18.356894 0 0 0 2.40505,0.47739 c 1.13714,0.17618 2.04116,0.35236 2.75187,0.52854 a 4.9636064,4.9614764 0 0 1 1.83648,0.84112 1.8251061,1.8243229 0 0 1 0.76757,1.54585 2.0866478,2.0857524 0 0 1 -0.70503,1.52311 4.861264,4.8591779 0 0 1 -2.10939,1.09686 12.610858,12.605446 0 0 1 -3.41141,0.40351 17.705235,17.697637 0 0 1 -3.36593,-0.30689 z"
     id="path133"
     style="stroke-width:0.568447" />
  <path
     class="cls-4"
     d="m 230.6286,271.4708 v 1.81295 h -11.37138 v -9.75813 h 11.10984 v 1.81295 h -7.73823 v 2.11417 h 6.82283 v 1.75612 h -6.82283 v 2.2733 z"
     id="path135"
     style="stroke-width:0.568447" />
  <path
     class="cls-4"
     d="m 192.61977,287.91812 h -6.82283 l -1.30202,2.09144 h -3.48533 l 6.54991,-9.75814 h 3.36025 l 6.57265,9.75814 h -3.57061 z m -1.06891,-1.70497 -2.33114,-3.75663 -2.33113,3.73389 z"
     id="path137"
     style="stroke-width:0.568447" />
  <path
     class="cls-4"
     d="m 212.50262,280.25142 v 9.75814 h -2.79167 l -7.30043,-5.92763 v 5.92763 h -3.41141 v -9.75814 h 2.84284 l 7.30611,5.92194 v -5.92194 z"
     id="path139"
     style="stroke-width:0.568447" />
  <path
     class="cls-4"
     d="m 215.98795,280.25142 h 6.68068 a 13.321569,13.315852 0 0 1 4.23015,0.6081 6.5897134,6.5868856 0 0 1 2.84285,1.70498 3.746869,3.7452611 0 0 1 0,5.11492 6.5897134,6.5868856 0 0 1 -2.84285,1.70498 13.486454,13.480667 0 0 1 -4.23015,0.60811 h -6.68068 z m 6.51011,7.88835 a 6.5953991,6.5925689 0 0 0 3.51944,-0.81839 2.5130745,2.5119961 0 0 0 0,-4.41589 6.5953991,6.5925689 0 0 0 -3.51944,-0.81838 h -3.10438 v 6.05266 z"
     id="path141"
     style="stroke-width:0.568447" />
  <path
     class="cls-4"
     d="m 166.48834,306.58759 a 9.8930986,9.8888533 0 0 1 -2.61542,-0.8127 l 1.13714,-1.70498 a 10.001127,9.9968351 0 0 0 2.24585,0.73883 12.7132,12.707745 0 0 0 2.60404,0.27848 5.901745,5.8992125 0 0 0 2.14351,-0.28985 c 0.46054,-0.18755 0.69365,-0.44329 0.69365,-0.75587 a 0.67091128,0.67062339 0 0 0 -0.40937,-0.56833 3.763926,3.7623109 0 0 0 -1.05185,-0.36941 c -0.42643,-0.0909 -1.00068,-0.19323 -1.70571,-0.30689 -1.13713,-0.17618 -2.04116,-0.35237 -2.75187,-0.52855 a 4.8498926,4.8478114 0 0 1 -1.83648,-0.85248 1.8649059,1.8641057 0 0 1 -0.76756,-1.5629 2.1207619,2.1198519 0 0 1 0.69365,-1.54016 4.7646073,4.7625627 0 0 1 2.08665,-1.09118 12.303831,12.298551 0 0 1 3.41141,-0.40351 16.903553,16.896299 0 0 1 2.75187,0.22164 10.666352,10.661775 0 0 1 2.35388,0.64221 l -1.05185,1.70498 a 11.610177,11.605195 0 0 0 -4.07096,-0.76156 5.5833464,5.5809506 0 0 0 -2.11507,0.30121 c -0.45486,0.21028 -0.68229,0.4774 -0.68229,0.81271 0,0.33531 0.26723,0.56832 0.79032,0.7445 a 16.931981,16.924716 0 0 0 2.40504,0.48308 c 1.13714,0.17618 2.03548,0.35236 2.75188,0.52854 a 5.11712,5.1149241 0 0 1 1.83647,0.83544 1.8251061,1.8243229 0 0 1 0.76189,1.54584 2.1150763,2.1141686 0 0 1 -0.69934,1.5288 4.8953781,4.8932774 0 0 1 -2.1094,1.09118 12.417544,12.412216 0 0 1 -3.41141,0.40351 17.665435,17.657855 0 0 1 -3.38867,-0.31258 z"
     id="path143"
     style="stroke-width:0.568447" />
  <path
     class="cls-4"
     d="m 191.90337,296.97722 v 9.75814 h -3.41141 v -3.97828 h -6.66363 v 3.97828 h -3.41141 v -9.75814 h 3.41141 v 3.84756 h 6.675 v -3.84756 z"
     id="path145"
     style="stroke-width:0.568447" />
  <path
     class="cls-4"
     d="m 195.39438,296.97722 h 3.41142 v 9.75814 h -3.41142 z"
     id="path147"
     style="stroke-width:0.568447" />
  <path
     class="cls-4"
     d="m 215.76052,296.97722 v 9.75814 h -2.79167 l -7.32886,-5.92195 v 5.92195 h -3.36024 v -9.75814 h 2.84285 l 7.27768,5.93899 v -5.93899 z"
     id="path149"
     style="stroke-width:0.568447" />
  <path
     class="cls-4"
     d="m 230.6286,304.9224 v 1.81296 h -11.37138 v -9.75814 h 11.10984 v 1.81296 h -7.73823 v 2.11985 h 6.82283 v 1.75612 h -6.82283 v 2.2733 z"
     id="path151"
     style="stroke-width:0.568447" />
</svg>
